<svg width="120" height="100" viewBox="0 0 120 100" fill="none" xmlns="http://www.w3.org/2000/svg">
<g clip-path="url(#clip0_159_56)">
<path d="M80.2337 81.358V13.7209C76.0266 19.1782 71.1464 23.3746 65.2829 26.3686C59.4562 29.3441 53.2331 30.8472 46.6044 31.1264V63.6611C50.5042 64.428 54.3764 64.9096 58.0703 66.0017C61.2755 66.9496 64.3026 68.5324 67.3573 69.9466C68.777 70.6031 69.1397 71.6614 68.5804 72.6307C68.0211 73.6031 66.9916 73.7197 65.6363 72.9252C60.0555 69.646 53.9891 67.9895 47.5632 67.5477C47.2651 67.5263 46.9609 67.5477 46.6843 67.5477C45.8576 71.5417 44.8158 72.373 40.7163 72.373C39.3457 72.373 37.9751 72.373 36.417 72.373C36.417 73.0724 36.417 73.6185 36.417 74.1645C36.417 80.453 36.4262 86.7416 36.4139 93.0301C36.4047 97.3615 33.7679 99.9598 29.398 99.9812C28.0673 99.9874 26.7335 100.024 25.4029 99.969C21.8073 99.8156 19.1491 97.1192 19.1275 93.5271C19.0876 87.0852 19.1153 80.6432 19.1122 74.2013C19.1122 73.6492 19.1122 73.0939 19.1122 72.5602C12.4251 71.9098 9.45026 67.8238 9.68382 62.1151C8.65125 61.9862 7.58795 61.9433 6.56767 61.704C3.36239 60.9555 1.10671 58.2929 1.0514 55.0013C0.968423 50.0441 0.953058 45.0808 1.05754 40.1236C1.13745 36.3137 4.21672 33.3872 8.11345 33.1602C8.61744 33.1295 9.11837 33.1111 9.49329 33.0927C9.82519 31.3902 9.91738 29.7214 10.4921 28.2398C11.7705 24.9421 14.355 23.1629 17.8799 22.893C19.5609 22.7642 21.2572 22.8439 22.9475 22.847C24.1029 22.847 24.8559 23.4237 24.8436 24.5894C24.8313 25.7459 24.0538 26.3195 22.9198 26.3379C21.3832 26.3655 19.8467 26.3195 18.3101 26.3594C15.4613 26.4391 13.3255 28.4852 13.3163 31.3166C13.2794 42.1574 13.2794 52.9952 13.3163 63.836C13.3255 66.5845 15.3783 68.7717 18.1441 68.8055C26.0298 68.8944 33.9185 68.8392 41.8072 68.8637C42.8122 68.8668 42.9843 68.3392 42.9781 67.5048C42.9597 64.336 42.972 61.1641 42.972 57.9953C42.972 48.0748 42.9474 38.1573 42.9996 28.2367C43.0088 26.8072 42.6769 26.2581 41.1373 26.3134C37.9658 26.4299 34.7882 26.3502 31.6106 26.3471C31.2019 26.3471 30.6579 26.4913 30.409 26.2888C29.7975 25.7919 28.9984 25.1906 28.8694 24.5158C28.6911 23.5955 29.4379 22.8746 30.4705 22.8685C34.6192 22.8501 38.771 22.7856 42.9136 22.9237C45.0556 22.9942 46.1219 24.4912 46.6874 27.8686C49.8373 27.3257 53.0549 27.0281 56.128 26.1999C66.1126 23.5065 73.7647 17.5708 79.2626 8.87417C79.8741 7.90481 80.2183 6.62563 80.2736 5.46915C80.4334 2.09175 82.3879 0.0456758 85.7868 0.0180676C87.9903 -0.000337869 90.1937 -0.0156758 92.3941 0.0242028C95.5256 0.0763516 97.5385 2.12549 97.5661 5.26363C97.5876 7.76984 97.56 10.273 97.5753 12.7792C97.5815 13.9848 97.142 14.8099 95.8237 14.7762C94.6067 14.7455 94.155 13.9326 94.1519 12.816C94.1457 10.4632 94.158 8.11341 94.1457 5.76058C94.1365 3.97218 93.7432 3.55192 92.013 3.53351C89.914 3.50897 87.812 3.53965 85.7131 3.52431C84.3732 3.51511 83.7278 4.16237 83.7432 5.49063C83.7463 5.84953 83.7432 6.20537 83.7432 6.56428C83.7432 33.8688 83.7432 61.1703 83.7432 88.4748C83.7432 91.1773 83.9829 91.4104 86.7456 91.4104C88.5895 91.4104 90.4334 91.4104 92.2773 91.4104C93.5465 91.4104 94.155 90.7816 94.1519 89.5208C94.1457 86.9655 94.1519 84.4072 94.1519 81.8519C94.1519 61.9126 94.1519 41.9703 94.1519 22.031C94.1519 21.623 94.155 21.212 94.1519 20.804C94.1457 19.6628 94.6835 18.853 95.836 18.8346C97.0867 18.8131 97.5876 19.6414 97.5815 20.8684C97.5631 25.8287 97.5753 30.7889 97.5815 35.7462C97.5815 35.9486 97.6092 36.1511 97.6337 36.4946C98.0548 36.5713 98.4819 36.6695 98.9152 36.7278C103.181 37.2892 106.361 40.7708 106.481 45.0624C106.521 46.4919 106.503 47.9244 106.494 49.357C106.463 54.3265 103.636 57.664 98.7462 58.5015C98.3989 58.5597 98.0517 58.6057 97.5723 58.6794C97.5723 59.2653 97.5723 59.8205 97.5723 60.3727C97.5723 69.9865 97.5723 79.5972 97.5723 89.211C97.5723 93.0301 95.7622 94.8277 91.9269 94.8369C89.7757 94.84 87.6246 94.8553 85.4734 94.8308C82.3726 94.797 80.4857 92.8277 80.2736 89.7601C80.1907 88.5545 79.8864 87.1741 79.1919 86.2354C77.096 83.4133 74.7635 80.769 72.514 78.0634C72.3204 77.8303 72.0499 77.6554 71.8532 77.4223C71.1618 76.6032 71.0204 75.5817 71.8809 74.9989C72.4248 74.6308 73.7125 74.5909 74.1519 74.9805C75.9067 76.5327 77.4617 78.3119 79.0812 80.0144C79.4224 80.3733 79.7266 80.769 80.2337 81.3641V81.358ZM22.7631 72.4559C22.6924 72.6706 22.6094 72.8117 22.6094 72.9528C22.6033 79.8457 22.5756 86.7354 22.6186 93.6283C22.6309 95.3277 23.7311 96.3492 25.4459 96.4443C26.7213 96.5118 28.0028 96.4811 29.2812 96.4719C32.0101 96.4505 32.9382 95.5118 32.9413 92.7479C32.9474 86.4686 32.9413 80.1892 32.9413 73.9099C32.9413 73.4252 32.9413 72.9436 32.9413 72.4589H22.76L22.7631 72.4559ZM9.68997 36.7891C6.50313 36.4548 4.51789 37.8382 4.47179 40.4886C4.39189 45.2434 4.3796 50.0012 4.48101 54.7529C4.5394 57.4615 6.98869 59.0444 9.68997 58.2959V36.7891ZM97.8304 40.2463V54.848C100.114 55.0504 102.428 53.6148 102.729 51.3417C103.052 48.8938 103.046 46.3477 102.747 43.8936C102.474 41.6482 100.298 40.2402 97.8304 40.2463Z" fill="url(#paint0_linear_159_56)"/>
<path d="M28.4912 34.6268C30.4365 34.6268 32.3849 34.59 34.3302 34.633C37.1574 34.6974 39.2963 36.8048 39.3977 39.5626C39.5022 42.3541 37.4187 44.7989 34.5699 44.8817C30.4764 45.0014 26.3738 45.0044 22.2804 44.8756C19.4962 44.7897 17.471 42.4031 17.5232 39.6485C17.5754 36.8846 19.699 34.7066 22.4986 34.633C24.4961 34.5808 26.4937 34.6238 28.4912 34.6207V34.6268ZM28.3498 41.4338C30.1876 41.4338 32.0253 41.4154 33.86 41.4399C35.08 41.4583 35.9005 40.9706 35.8729 39.7006C35.8483 38.5257 35.0308 38.041 33.903 38.041C30.2798 38.041 26.6565 38.0349 23.0333 38.0441C21.8625 38.0441 20.9897 38.5227 21.0143 39.808C21.0389 41.0135 21.8686 41.4399 22.9903 41.4338C24.7758 41.4277 26.5613 41.4338 28.3468 41.4338H28.3498Z" fill="url(#paint1_linear_159_56)"/>
<path d="M28.5004 50.2746C30.4457 50.2746 32.3941 50.2377 34.3394 50.2838C37.1636 50.3482 39.3025 52.4648 39.3977 55.2226C39.4961 58.0141 37.4094 60.4528 34.5606 60.5356C30.4672 60.6552 26.3646 60.6552 22.2712 60.5264C19.49 60.4374 17.4648 58.0478 17.5232 55.2931C17.5816 52.5292 19.7051 50.3605 22.5078 50.2868C24.5054 50.2347 26.5029 50.2776 28.5004 50.2746ZM28.3744 57.0785C30.2122 57.0785 32.0499 57.06 33.8845 57.0846C35.0216 57.0999 35.836 56.6674 35.8698 55.4741C35.9036 54.2072 35.0769 53.6888 33.8815 53.6888C30.2583 53.6888 26.635 53.6796 23.0118 53.6918C21.8379 53.6949 20.9774 54.1919 21.0174 55.4772C21.0573 56.6827 21.8993 57.0877 23.0149 57.0815C24.8004 57.0723 26.5859 57.0815 28.3714 57.0815L28.3744 57.0785Z" fill="url(#paint2_linear_159_56)"/>
<path d="M116.739 39.3171C116.558 39.5411 116.278 40.1178 115.82 40.4184C114.591 41.2283 113.285 41.9215 112.007 42.6577C111.051 43.2068 110.181 43.0167 109.616 42.1271C109.041 41.2252 109.262 40.3202 110.181 39.7497C111.518 38.9214 112.876 38.1055 114.293 37.4245C115.528 36.8324 116.773 37.676 116.739 39.3202V39.3171Z" fill="url(#paint3_linear_159_56)"/>
<path d="M116.712 55.7256C116.739 57.2625 115.449 58.1368 114.238 57.5294C112.824 56.8208 111.469 55.9833 110.126 55.1459C109.256 54.6029 108.958 53.652 109.582 52.9157C110 52.4219 111.118 51.9924 111.638 52.2133C113.224 52.882 114.696 53.8452 116.158 54.7747C116.487 54.9833 116.607 55.5263 116.715 55.7256H116.712Z" fill="url(#paint4_linear_159_56)"/>
<path d="M110.762 62.1768C110.249 62.8179 109.944 63.5602 109.453 63.7167C108.89 63.8946 107.846 63.778 107.566 63.3884C106.524 61.9498 105.614 60.3914 104.877 58.7748C104.671 58.3269 105.034 57.2809 105.47 56.968C105.913 56.649 107.133 56.6152 107.372 56.9373C108.586 58.5478 109.591 60.3178 110.762 62.1768Z" fill="url(#paint5_linear_159_56)"/>
<path d="M104.591 36.8263C104.883 36.1576 105.046 35.6759 105.292 35.2403C105.943 34.0839 106.607 32.9305 107.308 31.8016C107.852 30.9273 108.783 30.6114 109.533 31.2065C110.037 31.6053 110.513 32.7219 110.301 33.2219C109.631 34.8078 108.721 36.3171 107.707 37.7159C107.409 38.1269 106.401 38.3049 105.833 38.1576C105.332 38.0257 104.994 37.2895 104.588 36.8263H104.591Z" fill="url(#paint6_linear_159_56)"/>
<path d="M114.972 49.161C114.207 49.161 113.436 49.204 112.673 49.1488C111.672 49.0751 111.06 48.5291 111.045 47.4861C111.029 46.4462 111.616 45.8174 112.615 45.7714C114.195 45.6977 115.783 45.7069 117.366 45.7622C118.377 45.7959 119.004 46.437 119.013 47.4279C119.023 48.5076 118.35 49.1058 117.271 49.161C116.506 49.2009 115.737 49.1672 114.972 49.1672V49.158V49.161Z" fill="url(#paint7_linear_159_56)"/>
</g>
<defs>
<linearGradient id="paint0_linear_159_56" x1="0.983789" y1="49.9981" x2="106.503" y2="49.9981" gradientUnits="userSpaceOnUse">
<stop stop-color="#9D00FF"/>
<stop offset="1" stop-color="#0099F8"/>
</linearGradient>
<linearGradient id="paint1_linear_159_56" x1="17.5232" y1="39.7926" x2="39.4039" y2="39.7926" gradientUnits="userSpaceOnUse">
<stop stop-color="#9D00FF"/>
<stop offset="1" stop-color="#0099F8"/>
</linearGradient>
<linearGradient id="paint2_linear_159_56" x1="17.5232" y1="55.4404" x2="39.4039" y2="55.4404" gradientUnits="userSpaceOnUse">
<stop stop-color="#9D00FF"/>
<stop offset="1" stop-color="#0099F8"/>
</linearGradient>
<linearGradient id="paint3_linear_159_56" x1="109.299" y1="40.0994" x2="116.739" y2="40.0994" gradientUnits="userSpaceOnUse">
<stop stop-color="#9D00FF"/>
<stop offset="1" stop-color="#0099F8"/>
</linearGradient>
<linearGradient id="paint4_linear_159_56" x1="109.247" y1="54.9403" x2="116.712" y2="54.9403" gradientUnits="userSpaceOnUse">
<stop stop-color="#9D00FF"/>
<stop offset="1" stop-color="#0099F8"/>
</linearGradient>
<linearGradient id="paint5_linear_159_56" x1="104.819" y1="60.2564" x2="110.762" y2="60.2564" gradientUnits="userSpaceOnUse">
<stop stop-color="#9D00FF"/>
<stop offset="1" stop-color="#0099F8"/>
</linearGradient>
<linearGradient id="paint6_linear_159_56" x1="104.591" y1="34.5563" x2="110.353" y2="34.5563" gradientUnits="userSpaceOnUse">
<stop stop-color="#9D00FF"/>
<stop offset="1" stop-color="#0099F8"/>
</linearGradient>
<linearGradient id="paint7_linear_159_56" x1="111.045" y1="47.4493" x2="119.016" y2="47.4493" gradientUnits="userSpaceOnUse">
<stop stop-color="#9D00FF"/>
<stop offset="1" stop-color="#0099F8"/>
</linearGradient>
<clipPath id="clip0_159_56">
<rect width="118.033" height="100" fill="white" transform="translate(0.983643)"/>
</clipPath>
</defs>
</svg>
