<svg width="104" height="100" viewBox="0 0 104 100" fill="none" xmlns="http://www.w3.org/2000/svg">
<g clip-path="url(#clip0_159_114)">
<path d="M15.4646 91.2051H88.525C88.525 89.9016 88.5146 88.6347 88.525 87.3626C88.546 85.5198 88.9857 85.0906 90.8337 85.0801C92.1215 85.0749 93.4041 85.0801 94.828 85.0801C94.8594 84.4152 94.9066 83.8551 94.9066 83.2949C94.9066 69.7833 94.9066 56.2716 94.9066 42.7547C94.9066 42.3097 94.8961 41.8647 94.917 41.4145C94.9641 40.4356 95.4039 39.7707 96.4614 39.7864C97.5188 39.8021 97.9167 40.5141 97.99 41.4616C98.0214 41.8595 98.0005 42.2626 98.0005 42.6657C98.0005 56.2245 98.0005 69.778 98.0005 83.3368C98.0005 83.8603 98.0005 84.3838 98.0005 85.0749C99.2255 85.0749 100.33 85.0592 101.429 85.0749C102.775 85.101 103.361 85.6141 103.372 86.9019C103.403 90.6502 103.387 94.3933 103.382 98.1416C103.382 99.3561 102.696 99.9581 101.539 99.9686C97.8382 99.9948 94.137 100.005 90.4306 99.9686C89.0485 99.9529 88.5564 99.377 88.5198 97.9479C88.4936 96.8014 88.5146 95.6549 88.5146 94.4247H15.4594C15.4594 95.6758 15.4489 96.8642 15.4594 98.0526C15.4751 99.3299 14.8102 99.9686 13.58 99.9738C9.87881 99.9948 6.17763 99.9948 2.47121 99.9738C1.24098 99.9634 0.591828 99.3142 0.597063 98.0421C0.607533 94.3409 0.581358 90.6397 0.612768 86.9385C0.623239 85.635 1.19386 85.1115 2.5288 85.0801C3.81662 85.0539 5.10968 85.0749 6.52314 85.0749V14.9513C5.24579 14.9513 3.96844 14.967 2.69632 14.9513C1.16245 14.9251 0.618004 14.3755 0.612768 12.8311C0.597063 9.26604 0.597063 5.69574 0.612768 2.12543C0.612768 0.581089 1.16768 0.0209386 2.70679 0.0157035C6.2771 -1.64261e-06 9.84217 -0.0052367 13.4125 0.0157035C14.8888 0.0261736 15.4175 0.570619 15.4541 2.04167C15.4803 3.14103 15.4594 4.24039 15.4594 5.39734H88.525C88.525 4.19851 88.4989 3.09392 88.5303 1.98932C88.5721 0.596794 89.1061 0.0314087 90.4934 0.0209386C94.1056 -0.0052367 97.7178 -1.64164e-06 101.33 0.0209386C102.801 0.0314087 103.372 0.591559 103.377 2.04167C103.398 5.65386 103.393 9.26604 103.377 12.8782C103.372 14.3912 102.801 14.9251 101.241 14.9513C100.22 14.967 99.2045 14.9513 98.0005 14.9513C98.0005 15.5167 98.0005 15.9879 98.0005 16.459C98.0005 22.4374 98.0005 28.4106 97.9952 34.3891C97.9952 34.8707 98.0581 35.4884 97.8015 35.8078C97.4299 36.2632 96.7859 36.7605 96.2677 36.7501C95.8332 36.7448 95.2887 36.1062 95.0217 35.6193C94.8071 35.2371 94.9118 34.6613 94.9118 34.1744C94.9118 28.3792 94.9118 22.5788 94.9118 16.7836V14.9565C93.4826 14.9565 92.1215 14.967 90.7604 14.9565C89.0433 14.9408 88.546 14.4435 88.525 12.7107C88.5093 11.381 88.525 10.0565 88.525 8.64831H15.4646C15.4646 10.067 15.4803 11.4334 15.4646 12.7997C15.4384 14.4383 14.9254 14.9408 13.2816 14.9618C12.1665 14.9775 11.0567 14.9618 9.82646 14.9618V85.0906C10.9677 85.0906 12.1089 85.0853 13.2502 85.0906C14.9987 85.1063 15.4437 85.546 15.4646 87.3312C15.4803 88.5771 15.4646 89.8231 15.4646 91.2156V91.2051ZM12.3288 88.2264H3.70145V96.8118H12.3288V88.2264ZM91.7132 88.2316V96.7909H100.32V88.2316H91.7132ZM12.3131 3.20385H3.68051V11.7632H12.3131V3.20385ZM91.687 3.18815V11.7579H100.272V3.10439C97.7073 3.10439 95.2573 3.10439 92.8073 3.10439C92.4618 3.10439 92.111 3.1515 91.687 3.18815Z" fill="url(#paint0_linear_159_114)"/>
<path d="M12.198 45.3984C12.2765 40.1424 14.0774 35.3366 17.611 31.1433C18.2916 30.3371 18.6162 29.2273 19.124 28.2693C19.637 27.306 20.3123 26.7773 21.5164 27.1647C21.8776 27.2799 22.443 27.0076 22.8304 26.7721C30.4526 22.16 40.4935 22.6887 47.4404 28.1646C47.9639 28.5782 48.4089 29.4995 48.3513 30.1382C48.257 31.2376 46.9116 31.4941 45.8018 30.6722C43.179 28.7247 40.2945 27.4631 37.0488 26.9239C28.3272 25.4842 19.3595 30.7245 16.407 39.0535C11.8525 51.9108 21.4693 64.9827 35.1013 64.454C49.1627 63.9148 57.7325 47.9217 50.4034 35.9125C50.194 35.5722 49.9794 35.2319 49.7857 34.8812C49.3355 34.075 49.3407 33.2845 50.1626 32.7714C51.0107 32.2375 51.9006 32.4312 52.3351 33.3264C53.4397 35.5984 54.7694 37.8337 55.4029 40.2419C57.7482 49.1048 54.2302 58.2086 46.6237 63.6321C39.5721 68.6577 29.6726 68.7886 22.1655 63.9881C21.731 63.7106 21.1342 63.564 20.6107 63.5693C19.1554 63.5745 18.8517 62.4071 18.3021 61.4805C17.8518 60.7266 17.4802 59.9204 16.9514 59.2294C13.8575 55.2089 12.2451 50.6806 12.1927 45.3932L12.198 45.3984Z" fill="url(#paint1_linear_159_114)"/>
<path d="M65.4646 73.6886C64.6689 73.5734 64.0093 73.6206 63.491 73.3693C62.6115 72.94 62.5278 71.7045 63.3916 71.0187C64.0669 70.4795 64.0512 70.045 63.7685 69.3278C61.753 64.2341 59.7898 59.1195 57.7901 54.0205C57.455 53.1672 57.031 52.3453 57.8738 51.5705C58.6957 50.8167 59.5333 51.2721 60.3657 51.5967C65.1715 53.4865 69.9773 55.3712 74.7516 57.2453C76.5525 55.6172 77.3273 55.8633 77.9659 58.0777C78.0759 58.4546 78.6832 58.7792 79.1281 58.9572C82.8503 60.4492 86.5881 61.894 90.3207 63.3599C90.7342 63.5221 91.2211 63.6111 91.5352 63.8938C92.0535 64.3545 92.8387 64.9618 92.8126 65.4748C92.7864 66.0193 92.0482 66.7679 91.4515 67.0087C88.3942 68.2337 85.2898 69.3435 82.1854 70.4481C79.3061 71.4707 77.4424 73.4722 76.5944 76.4527C75.6573 79.7037 74.6574 82.9389 73.6889 86.1794C73.4533 86.9699 73.1759 87.7447 72.176 87.818C71.1133 87.8913 70.7259 87.1427 70.4013 86.3103C68.7523 82.0804 67.098 77.8505 65.4699 73.6938L65.4646 73.6886ZM71.6734 81.1852C71.7781 81.1904 71.8828 81.2009 71.9928 81.2061C72.6576 79.0074 73.291 76.7982 73.9925 74.61C75.9295 68.5426 74.3276 70.2178 80.1856 67.9615C82.3843 67.1134 84.5988 66.3072 87.0907 65.3753C78.4685 61.9883 70.1657 58.7268 61.5802 55.3555C65.0197 64.1451 68.3492 72.6625 71.6787 81.18L71.6734 81.1852Z" fill="url(#paint2_linear_159_114)"/>
<path d="M45.5924 78.5782C44.9275 78.5206 44.1685 78.6462 43.624 78.3635C43.0953 78.0861 42.4409 77.3793 42.4671 76.8872C42.488 76.3899 43.2262 75.5889 43.734 75.5209C44.9066 75.3691 46.1264 75.5418 47.32 75.6517C48.2047 75.7355 48.7073 76.3375 48.6654 77.1909C48.6235 78.1227 48.0162 78.6148 47.0634 78.6305C46.5766 78.6357 46.0845 78.6305 45.5924 78.6305C45.5924 78.6148 45.5924 78.5939 45.5924 78.5782Z" fill="url(#paint3_linear_159_114)"/>
<path d="M24.8406 66.2182C25.3222 66.4433 25.6886 66.5271 25.9452 66.7469C26.7932 67.4641 27.6256 68.2075 28.4266 68.9875C29.0495 69.5896 29.2642 70.4429 28.5522 70.9716C28.0654 71.3329 27.0236 71.5108 26.5629 71.2281C25.5211 70.5895 24.605 69.6733 23.7988 68.7363C23.5109 68.4012 23.5161 67.6107 23.6941 67.15C23.8511 66.7522 24.4479 66.5218 24.8406 66.2234V66.2182Z" fill="url(#paint4_linear_159_114)"/>
<path d="M54.314 77.9657C53.9371 77.5835 53.2408 77.2013 53.1518 76.704C53.0576 76.191 53.3979 75.2434 53.8114 75.055C55.0103 74.5053 56.319 74.1127 57.6278 73.9294C58.0675 73.8666 58.9104 74.5105 59.0465 74.9817C59.1826 75.4476 58.8057 76.4213 58.3921 76.6203C57.1985 77.1909 55.874 77.4788 54.314 77.9657Z" fill="url(#paint5_linear_159_114)"/>
<path d="M38.1585 75.0026C38.1481 76.3637 37.2529 77.0757 36.2268 76.7302C35.096 76.3428 33.9338 75.9292 32.9444 75.2801C32.5047 74.9922 32.1539 73.987 32.3267 73.5211C32.4994 73.0657 33.4679 72.5317 33.9495 72.6416C35.1431 72.9086 36.2949 73.4635 37.3942 74.0341C37.7921 74.2383 38.0067 74.8142 38.1481 75.0079L38.1585 75.0026Z" fill="url(#paint6_linear_159_114)"/>
<path d="M80.1909 42.0375C79.8244 42.3516 79.3376 43.0793 78.7879 43.1421C78.2958 43.1944 77.4477 42.6186 77.2435 42.1212C76.8509 41.158 76.7619 40.0639 76.6258 39.0169C76.5054 38.0746 77.0184 37.3259 77.9084 37.3783C78.4895 37.4097 79.3061 37.9908 79.526 38.53C79.9186 39.488 79.9448 40.5978 80.1909 42.0427V42.0375Z" fill="url(#paint7_linear_159_114)"/>
<path d="M24.5841 24.8351C24.3904 24.678 23.8303 24.4372 23.647 24.0289C23.4638 23.6101 23.4481 22.8562 23.7099 22.5526C24.5265 21.626 25.4584 20.7727 26.4583 20.045C26.7828 19.8094 27.5629 19.8723 27.9241 20.1183C28.2905 20.3591 28.568 20.9873 28.5785 21.4585C28.6046 22.3746 25.8039 24.8403 24.5789 24.8351H24.5841Z" fill="url(#paint8_linear_159_114)"/>
<path d="M68.4433 20.6732C68.9302 20.8931 69.3124 20.9611 69.5479 21.1863C70.3541 21.9401 71.2389 22.6678 71.8304 23.5734C72.1183 24.0132 72.0398 24.966 71.7414 25.4424C71.286 26.1753 70.4117 26.1491 69.7626 25.5732C68.9354 24.8403 68.1188 24.0708 67.4591 23.1965C67.1869 22.8301 67.166 22.0867 67.3335 21.6312C67.4853 21.2281 68.0559 20.9821 68.4433 20.6732Z" fill="url(#paint9_linear_159_114)"/>
<path d="M32.5622 19.3435C32.1068 18.9247 31.4524 18.6001 31.3268 18.129C31.1959 17.6474 31.4053 16.7626 31.7717 16.5218C32.7612 15.8674 33.8762 15.323 35.0175 15.0298C35.4991 14.9042 36.4833 15.3963 36.6718 15.8517C36.8602 16.2967 36.5147 17.3018 36.0854 17.6055C35.0803 18.3017 33.8815 18.7205 32.5622 19.3488V19.3435Z" fill="url(#paint10_linear_159_114)"/>
<path d="M42.2366 16.0088C41.1791 16.0821 40.4253 15.7627 40.2892 14.7262C40.1583 13.6949 40.7865 13.1557 41.7445 12.9986C42.6659 12.8521 43.5925 12.7159 44.5243 12.6531C45.3724 12.6008 46.0163 12.962 46.1524 13.8781C46.299 14.8361 45.8226 15.4434 44.917 15.6319C44.0061 15.8203 43.069 15.8936 42.2366 16.0036V16.0088Z" fill="url(#paint11_linear_159_114)"/>
<path d="M63.245 20.1707C61.842 19.3121 60.5437 18.6316 59.4129 17.7468C59.1459 17.5374 59.2035 16.4747 59.4914 16.1083C59.7846 15.7366 60.6431 15.4801 61.0986 15.6319C62.1404 15.9826 63.1717 16.5009 64.0407 17.171C64.4438 17.4798 64.6689 18.3489 64.5642 18.8776C64.4752 19.3278 63.7946 19.6629 63.245 20.1707Z" fill="url(#paint12_linear_159_114)"/>
<path d="M55.8164 14.5273C55.7064 15.8413 55.1463 16.37 54.2144 16.2967C53.1517 16.2129 52.0943 16.0088 51.0577 15.7575C50.2149 15.5586 49.7594 14.9356 49.9112 14.0613C50.0578 13.1976 50.6546 12.7107 51.5341 12.8259C52.6335 12.9672 53.7538 13.1243 54.8008 13.4698C55.2719 13.6268 55.586 14.2707 55.8164 14.5273Z" fill="url(#paint13_linear_159_114)"/>
<path d="M72.8461 29.8189C73.3277 29.264 73.6104 28.6567 74.0501 28.5049C74.5003 28.3531 75.3798 28.4682 75.5892 28.7823C76.3221 29.8765 76.9294 31.0753 77.3849 32.3055C77.5157 32.6615 77.0969 33.4677 76.7095 33.6981C76.3221 33.9336 75.3694 33.9179 75.1704 33.6457C74.3171 32.4888 73.6523 31.1905 72.8461 29.8136V29.8189Z" fill="url(#paint14_linear_159_114)"/>
<path d="M80.1751 48.8954C80.0599 49.733 79.95 50.5758 79.8244 51.4082C79.683 52.3244 79.1595 52.9054 78.2015 52.8217C77.165 52.7275 76.7671 52.0155 76.8561 51.0313C76.9346 50.1885 77.0707 49.3508 77.1702 48.5132C77.2906 47.4819 77.8036 46.77 78.8925 46.9113C79.9762 47.0474 80.3112 47.8641 80.1751 48.8954Z" fill="url(#paint15_linear_159_114)"/>
</g>
<defs>
<linearGradient id="paint0_linear_159_114" x1="0.597063" y1="50" x2="103.403" y2="50" gradientUnits="userSpaceOnUse">
<stop stop-color="#9D00FF"/>
<stop offset="1" stop-color="#0099F8"/>
</linearGradient>
<linearGradient id="paint1_linear_159_114" x1="12.198" y1="45.5764" x2="56.1306" y2="45.5764" gradientUnits="userSpaceOnUse">
<stop stop-color="#9D00FF"/>
<stop offset="1" stop-color="#0099F8"/>
</linearGradient>
<linearGradient id="paint2_linear_159_114" x1="57.3765" y1="69.4901" x2="92.8073" y2="69.4901" gradientUnits="userSpaceOnUse">
<stop stop-color="#9D00FF"/>
<stop offset="1" stop-color="#0099F8"/>
</linearGradient>
<linearGradient id="paint3_linear_159_114" x1="42.4618" y1="77.0443" x2="48.6654" y2="77.0443" gradientUnits="userSpaceOnUse">
<stop stop-color="#9D00FF"/>
<stop offset="1" stop-color="#0099F8"/>
</linearGradient>
<linearGradient id="paint4_linear_159_114" x1="23.5684" y1="68.7886" x2="28.9972" y2="68.7886" gradientUnits="userSpaceOnUse">
<stop stop-color="#9D00FF"/>
<stop offset="1" stop-color="#0099F8"/>
</linearGradient>
<linearGradient id="paint5_linear_159_114" x1="53.1361" y1="75.9449" x2="59.0779" y2="75.9449" gradientUnits="userSpaceOnUse">
<stop stop-color="#9D00FF"/>
<stop offset="1" stop-color="#0099F8"/>
</linearGradient>
<linearGradient id="paint6_linear_159_114" x1="32.29" y1="74.7199" x2="38.1585" y2="74.7199" gradientUnits="userSpaceOnUse">
<stop stop-color="#9D00FF"/>
<stop offset="1" stop-color="#0099F8"/>
</linearGradient>
<linearGradient id="paint7_linear_159_114" x1="76.6049" y1="40.2576" x2="80.1909" y2="40.2576" gradientUnits="userSpaceOnUse">
<stop stop-color="#9D00FF"/>
<stop offset="1" stop-color="#0099F8"/>
</linearGradient>
<linearGradient id="paint8_linear_159_114" x1="23.5109" y1="22.3694" x2="28.5889" y2="22.3694" gradientUnits="userSpaceOnUse">
<stop stop-color="#9D00FF"/>
<stop offset="1" stop-color="#0099F8"/>
</linearGradient>
<linearGradient id="paint9_linear_159_114" x1="67.2288" y1="23.3379" x2="72.0084" y2="23.3379" gradientUnits="userSpaceOnUse">
<stop stop-color="#9D00FF"/>
<stop offset="1" stop-color="#0099F8"/>
</linearGradient>
<linearGradient id="paint10_linear_159_114" x1="31.2849" y1="17.1762" x2="36.7241" y2="17.1762" gradientUnits="userSpaceOnUse">
<stop stop-color="#9D00FF"/>
<stop offset="1" stop-color="#0099F8"/>
</linearGradient>
<linearGradient id="paint11_linear_159_114" x1="40.2735" y1="14.3336" x2="46.1839" y2="14.3336" gradientUnits="userSpaceOnUse">
<stop stop-color="#9D00FF"/>
<stop offset="1" stop-color="#0099F8"/>
</linearGradient>
<linearGradient id="paint12_linear_159_114" x1="59.2401" y1="17.8777" x2="64.5904" y2="17.8777" gradientUnits="userSpaceOnUse">
<stop stop-color="#9D00FF"/>
<stop offset="1" stop-color="#0099F8"/>
</linearGradient>
<linearGradient id="paint13_linear_159_114" x1="49.8798" y1="14.5587" x2="55.8164" y2="14.5587" gradientUnits="userSpaceOnUse">
<stop stop-color="#9D00FF"/>
<stop offset="1" stop-color="#0099F8"/>
</linearGradient>
<linearGradient id="paint14_linear_159_114" x1="72.8461" y1="31.1486" x2="77.4163" y2="31.1486" gradientUnits="userSpaceOnUse">
<stop stop-color="#9D00FF"/>
<stop offset="1" stop-color="#0099F8"/>
</linearGradient>
<linearGradient id="paint15_linear_159_114" x1="76.8404" y1="49.8639" x2="80.2065" y2="49.8639" gradientUnits="userSpaceOnUse">
<stop stop-color="#9D00FF"/>
<stop offset="1" stop-color="#0099F8"/>
</linearGradient>
<clipPath id="clip0_159_114">
<rect width="102.806" height="100" fill="white" transform="translate(0.597046)"/>
</clipPath>
</defs>
</svg>
