<?xml version="1.0" encoding="UTF-8"?>
<svg id="Layer_2" data-name="Layer 2" xmlns="http://www.w3.org/2000/svg" viewBox="0 0 245.44 80.58">
  <defs>
    <style>
      .cls-1 {
        fill: #282828;
        stroke-width: 0px;
      }
    </style>
  </defs>
  <g id="Layer_1-2" data-name="Layer 1">
    <g>
      <path class="cls-1" d="M28.85,46.16c2.06.21,4.07.69,6.03,1.44,1.96.76,3.71,1.79,5.25,3.09,1.55,1.31,2.8,2.87,3.76,4.69.96,1.82,1.44,3.9,1.44,6.23,0,2.95-.62,5.62-1.85,7.99s-2.9,4.36-5,5.98c-2.1,1.62-4.5,2.85-7.21,3.71-2.71.86-5.58,1.29-8.6,1.29s-5.81-.43-8.55-1.29c-2.75-.86-5.17-2.09-7.26-3.71-2.1-1.61-3.76-3.61-5-5.98-1.24-2.37-1.85-5.03-1.85-7.99h15.46c0,2.34.77,3.92,2.32,4.74,1.55.82,3.18,1.24,4.89,1.24s3.35-.45,4.89-1.34c1.55-.89,2.32-2.23,2.32-4.02,0-1.3-.76-2.47-2.27-3.5-1.51-1.03-3.44-1.72-5.77-2.06-2.68-.34-5.31-1-7.88-1.96-2.58-.96-4.84-2.16-6.8-3.61-1.96-1.44-3.54-3.11-4.74-5-1.2-1.89-1.8-3.93-1.8-6.13,0-2.82.58-5.36,1.75-7.62,1.17-2.27,2.76-4.19,4.79-5.77,2.03-1.58,4.38-2.8,7.06-3.66,2.68-.86,5.5-1.29,8.45-1.29s5.86.43,8.5,1.29c2.64.86,4.98,2.1,7.01,3.71,2.03,1.62,3.62,3.59,4.79,5.92,1.17,2.34,1.75,5.02,1.75,8.04h-15.46c0-1.17-.19-2.15-.57-2.94-.38-.79-.88-1.41-1.49-1.85-.62-.45-1.32-.75-2.11-.93-.79-.17-1.6-.26-2.42-.26-1.72,0-3.25.36-4.59,1.08-1.34.72-2.01,2.01-2.01,3.86,0,.82.38,1.6,1.13,2.32.75.72,1.75,1.38,2.99,1.96,1.24.58,2.61,1.07,4.12,1.44,1.51.38,3.02.67,4.53.88Z"/>
      <path class="cls-1" d="M71.1,4.74v18.55h15.46v13.19h-15.46v14.63c0,2.13.41,4.14,1.24,6.03.83,1.89,1.92,3.52,3.3,4.89,1.37,1.38,3,2.47,4.89,3.3,1.89.82,3.9,1.24,6.03,1.24v14.01h-2.06c-4.26,0-8.16-.77-11.7-2.32-3.54-1.54-6.58-3.66-9.12-6.34-2.54-2.68-4.52-5.8-5.92-9.38-1.41-3.57-2.11-7.38-2.11-11.44V4.74h15.46Z"/>
      <path class="cls-1" d="M106.54,0c1.24,0,2.39.24,3.45.72,1.06.48,1.99,1.12,2.78,1.91.79.79,1.42,1.72,1.91,2.78.48,1.07.72,2.22.72,3.45s-.24,2.39-.72,3.45c-.48,1.07-1.12,2.01-1.91,2.83-.79.82-1.72,1.46-2.78,1.91-1.07.45-2.22.67-3.45.67-2.47,0-4.57-.86-6.29-2.58-1.72-1.72-2.58-3.81-2.58-6.29,0-1.24.22-2.39.67-3.45.45-1.06,1.08-1.99,1.91-2.78.82-.79,1.77-1.42,2.83-1.91,1.06-.48,2.22-.72,3.45-.72ZM98.81,23.29h15.46v55.64h-15.46V23.29Z"/>
      <path class="cls-1" d="M128.08,4.74h15.46v74.19h-15.46V4.74Z"/>
      <path class="cls-1" d="M165.07,0c1.24,0,2.39.24,3.45.72,1.06.48,1.99,1.12,2.78,1.91.79.79,1.42,1.72,1.91,2.78.48,1.07.72,2.22.72,3.45s-.24,2.39-.72,3.45c-.48,1.07-1.12,2.01-1.91,2.83-.79.82-1.72,1.46-2.78,1.91-1.07.45-2.22.67-3.45.67-2.47,0-4.57-.86-6.29-2.58-1.72-1.72-2.58-3.81-2.58-6.29,0-1.24.22-2.39.67-3.45.45-1.06,1.08-1.99,1.91-2.78.82-.79,1.77-1.42,2.83-1.91,1.06-.48,2.22-.72,3.45-.72ZM157.34,23.29h15.46v55.64h-15.46V23.29Z"/>
      <path class="cls-1" d="M181.97,78.93l22.36-29.16-20.09-26.48h18.55l10.92,15.25,10.92-15.25h18.55l-20.09,26.48,22.36,29.16h-18.75l-12.98-17.93-12.98,17.93h-18.75Z"/>
    </g>
  </g>
</svg>