<svg width="103" height="100" viewBox="0 0 103 100" fill="none" xmlns="http://www.w3.org/2000/svg">
<g clip-path="url(#clip0_159_103)">
<path d="M88.9622 16.392H3.39437C3.39437 16.9196 3.39437 17.3869 3.39437 17.8593C3.39437 40.4623 3.39437 63.0653 3.39437 85.6683C3.39437 87.9849 3.96221 88.5377 6.31899 88.5427C21.6507 88.5427 36.9823 88.5427 52.314 88.5427C52.7562 88.5427 53.2034 88.5327 53.6406 88.5628C54.53 88.6181 55.0476 89.1055 55.0577 89.995C55.0728 90.8945 54.5099 91.3618 53.6708 91.4874C53.324 91.5427 52.9622 91.5126 52.6105 91.5126C37.1029 91.5126 21.5954 91.5126 6.08784 91.5126C2.27377 91.5126 0.43457 89.6935 0.43457 85.9045C0.43457 59.1357 0.43457 32.3618 0.43457 5.59297C0.43457 1.78894 2.23357 0 6.05769 0C32.8215 0 59.5853 0 86.3441 0C90.1632 0 91.922 1.76884 91.922 5.61307C91.922 19.9749 91.922 34.3317 91.922 48.6935C91.922 49.1357 92.0577 49.6834 91.8517 49.995C91.525 50.4874 90.9723 51.1156 90.4949 51.1307C90.0125 51.1457 89.4094 50.5578 89.0527 50.0905C88.8316 49.799 88.9622 49.2362 88.9622 48.794C88.9622 38.5578 88.9622 28.3166 88.9622 18.0804V16.392ZM88.9622 13.3116C88.9622 10.7437 88.9622 8.31658 88.9622 5.88442C88.9622 3.43719 88.4848 2.96482 86.0024 2.96482C59.4597 2.96482 32.922 2.96482 6.37929 2.96482C5.98231 2.96482 5.5803 2.94472 5.18331 2.98492C4.23357 3.08543 3.4999 3.63819 3.46975 4.55779C3.38432 7.46231 3.4396 10.3668 3.4396 13.3116H88.9622Z" fill="url(#paint0_linear_159_103)"/>
<path d="M92.0727 53.608C93.1833 54.1809 94.2536 54.4824 94.9873 55.1558C97.1682 57.1658 99.2486 59.2864 101.304 61.4271C103.002 63.196 102.972 65.598 101.289 67.397C100.475 68.2713 99.6707 69.1759 98.7461 69.9196C94.8265 73.0804 92.9873 77.3417 92.1833 82.1507C91.8366 84.2412 91.5451 86.3568 91.3893 88.4673C91.133 91.9548 89.6355 93.7186 86.2687 94.4171C77.6104 96.2161 68.9572 98.0653 60.2989 99.8643C57.4647 100.452 56.0426 99.0904 56.6205 96.2914C58.4747 87.3216 60.3692 78.3618 62.2838 69.407C62.8165 66.9246 64.8064 65.4975 67.4144 65.1457C71.0878 64.6482 74.7562 64.0603 78.3692 63.2512C80.9923 62.6633 83.2587 61.2462 85.1129 59.2211C86.3391 57.8844 87.5853 56.5477 88.9672 55.3769C89.8315 54.6432 90.9572 54.2261 92.0778 53.608H92.0727ZM62.4747 96.0754C62.53 96.1608 62.5903 96.2412 62.6456 96.3266C70.6004 94.6332 78.5602 92.9497 86.5099 91.2362C87.8566 90.9447 88.2989 89.8693 88.3742 88.6382C88.7411 82.6231 89.7059 76.7688 92.7913 71.8593C90.0275 69.0452 87.3692 66.3467 84.7009 63.6281C79.8064 66.7286 74.1984 67.6683 68.4597 68.0904C66.0476 68.2713 65.525 68.6231 65.0275 70.9347C64.0526 75.4774 63.1079 80.0301 62.1531 84.5779C61.5099 87.6432 60.8617 90.7035 60.1883 93.8894C60.4647 93.7638 60.6054 93.7437 60.6858 93.6583C63.6707 90.6884 66.6607 87.7286 69.6004 84.7136C69.8315 84.4774 69.8617 83.8442 69.731 83.4925C68.6858 80.6784 69.5652 77.6834 71.9672 76.0754C74.3893 74.4523 77.5903 74.7588 79.6556 76.809C81.7109 78.8492 82.0426 82.0754 80.4396 84.4975C78.8466 86.9095 75.8366 87.8543 73.0577 86.7236C72.3994 86.4573 72.0426 86.5477 71.5753 87.0251C69.7511 88.8995 67.8918 90.7387 66.0376 92.5779C64.8567 93.7487 63.6607 94.9095 62.4697 96.0703L62.4747 96.0754ZM95.2335 69.3417C96.5602 67.9648 97.8516 66.6382 99.133 65.2965C99.7361 64.6633 99.6757 64.0301 99.0778 63.4322C97.0778 61.4271 95.1079 59.3869 93.0325 57.4573C92.6908 57.1357 91.6506 57.0402 91.334 57.3116C89.8617 58.5477 88.535 59.9548 87.1732 61.2764C89.9069 64.01 92.4697 66.5729 95.2335 69.3417ZM78.3994 81.1859C78.4245 79.4171 77.0878 78.0502 75.3491 78.0603C73.6959 78.0703 72.3139 79.4271 72.2788 81.0804C72.2386 82.794 73.6305 84.1809 75.3742 84.1759C77.123 84.1708 78.3793 82.9347 78.3994 81.1859Z" fill="url(#paint1_linear_159_103)"/>
<path d="M39.5954 62.5377C37.9773 62.5075 37.3994 61.4322 37.9874 60.2412C39.4145 57.3417 40.8718 54.4573 42.319 51.5729C45.4095 45.397 48.4949 39.2211 51.6105 33.0603C51.8467 32.593 52.2989 32.0452 52.7462 31.9347C53.1984 31.8241 53.9924 32.0754 54.2336 32.4372C54.505 32.8492 54.5351 33.6533 54.314 34.1206C52.7713 37.3568 51.1381 40.5477 49.5301 43.7538C46.5954 49.608 43.6708 55.4724 40.706 61.3116C40.4246 61.8693 39.8416 62.2764 39.5954 62.5427V62.5377Z" fill="url(#paint2_linear_159_103)"/>
<path d="M24.8165 50.6382C27.4999 52.407 30.0275 54.0352 32.52 55.7236C33.7712 56.5678 33.6607 58.0553 32.2888 58.6332C31.8466 58.8191 31.1079 58.7689 30.7009 58.5126C27.4446 56.4523 24.2185 54.3518 21.0275 52.191C19.726 51.3116 19.7361 49.8895 21.0376 49.0101C24.2285 46.8543 27.4697 44.7689 30.6959 42.6683C31.6959 42.0201 32.4798 42.4322 33.0727 43.2965C33.7009 44.2161 33.4145 44.9749 32.5351 45.5528C30.0275 47.2111 27.515 48.8593 24.8165 50.6332V50.6382Z" fill="url(#paint3_linear_159_103)"/>
<path d="M67.4899 50.6181C64.8919 48.9146 62.3793 47.2814 59.8818 45.6231C58.7612 44.8794 58.6557 43.7136 59.6004 42.8593C60.2336 42.2915 60.8969 42.201 61.6507 42.6985C64.8265 44.794 68.0275 46.8442 71.1884 48.9548C72.5451 49.8643 72.5803 51.3116 71.2386 52.2161C68.0476 54.3668 64.8115 56.4422 61.5954 58.5528C60.6456 59.1759 59.8567 58.8292 59.3039 58.0302C58.726 57.201 58.7964 56.3668 59.7411 55.7488C61.9974 54.2764 64.2486 52.789 66.5049 51.3065C66.7914 51.1156 67.0728 50.9096 67.4949 50.6131L67.4899 50.6181Z" fill="url(#paint4_linear_159_103)"/>
<path d="M78.3993 81.1859C78.3742 82.9296 77.123 84.1708 75.3742 84.1759C73.6305 84.1809 72.2436 82.794 72.2787 81.0804C72.3139 79.4271 73.6958 78.0653 75.3491 78.0603C77.0928 78.0502 78.4245 79.4221 78.3993 81.1859Z" fill="white"/>
<path d="M25.8316 6.65829C31.1482 6.65829 36.4648 6.62813 41.7763 6.69849C42.3693 6.70854 43.103 7.1407 43.4799 7.61306C43.706 7.89447 43.5402 8.84422 43.2236 9.10552C42.7814 9.47738 42.0377 9.63819 41.4246 9.63819C32.5201 9.66834 23.6155 9.65829 14.711 9.65829C13.2487 9.65829 11.7864 9.66331 10.3241 9.65829C8.8869 9.64823 8.0678 9.09547 8.16328 8.11557C8.28891 6.85929 9.18841 6.63818 10.2738 6.64321C15.4547 6.66331 20.6407 6.65326 25.8216 6.65326L25.8316 6.65829Z" fill="url(#paint5_linear_159_103)"/>
<path d="M67.3593 6.58795C68.3995 6.66835 68.9321 7.27137 68.902 8.23117C68.8768 9.13067 68.3341 9.72866 67.3894 9.72866C66.3944 9.72866 65.8115 9.15579 65.8115 8.16584C65.8115 7.17589 66.3995 6.65328 67.3593 6.58795Z" fill="url(#paint6_linear_159_103)"/>
<path d="M76.5752 8.17588C76.4747 9.17588 75.937 9.74875 74.947 9.72865C74.0224 9.70855 73.4546 9.14071 73.4395 8.21608C73.4244 7.23116 73.9772 6.62312 74.9822 6.61307C75.9873 6.60302 76.4898 7.20603 76.5802 8.17588H76.5752Z" fill="url(#paint7_linear_159_103)"/>
<path d="M84.2336 8.14071C84.0678 9.17588 83.5552 9.7789 82.5552 9.72865C81.5502 9.6784 81.0176 9.01005 81.0779 8.05528C81.1331 7.17588 81.6909 6.59297 82.6507 6.60804C83.6809 6.62312 84.098 7.28141 84.2387 8.14071H84.2336Z" fill="url(#paint8_linear_159_103)"/>
</g>
<defs>
<linearGradient id="paint0_linear_159_103" x1="0.570249" y1="45.7588" x2="92.1029" y2="45.7588" gradientUnits="userSpaceOnUse">
<stop stop-color="#9D00FF"/>
<stop offset="1" stop-color="#0099F8"/>
</linearGradient>
<linearGradient id="paint1_linear_159_103" x1="56.4898" y1="76.804" x2="102.565" y2="76.804" gradientUnits="userSpaceOnUse">
<stop stop-color="#9D00FF"/>
<stop offset="1" stop-color="#0099F8"/>
</linearGradient>
<linearGradient id="paint2_linear_159_103" x1="37.7612" y1="47.2211" x2="54.4597" y2="47.2211" gradientUnits="userSpaceOnUse">
<stop stop-color="#9D00FF"/>
<stop offset="1" stop-color="#0099F8"/>
</linearGradient>
<linearGradient id="paint3_linear_159_103" x1="20.0526" y1="50.5477" x2="33.4094" y2="50.5477" gradientUnits="userSpaceOnUse">
<stop stop-color="#9D00FF"/>
<stop offset="1" stop-color="#0099F8"/>
</linearGradient>
<linearGradient id="paint4_linear_159_103" x1="58.9371" y1="50.6231" x2="72.2285" y2="50.6231" gradientUnits="userSpaceOnUse">
<stop stop-color="#9D00FF"/>
<stop offset="1" stop-color="#0099F8"/>
</linearGradient>
<linearGradient id="paint5_linear_159_103" x1="8.16328" y1="8.15577" x2="43.5854" y2="8.15577" gradientUnits="userSpaceOnUse">
<stop stop-color="#9D00FF"/>
<stop offset="1" stop-color="#0099F8"/>
</linearGradient>
<linearGradient id="paint6_linear_159_103" x1="65.8115" y1="8.16082" x2="68.907" y2="8.16082" gradientUnits="userSpaceOnUse">
<stop stop-color="#9D00FF"/>
<stop offset="1" stop-color="#0099F8"/>
</linearGradient>
<linearGradient id="paint7_linear_159_103" x1="73.4345" y1="8.16583" x2="76.5752" y2="8.16583" gradientUnits="userSpaceOnUse">
<stop stop-color="#9D00FF"/>
<stop offset="1" stop-color="#0099F8"/>
</linearGradient>
<linearGradient id="paint8_linear_159_103" x1="81.0728" y1="8.16583" x2="84.2336" y2="8.16583" gradientUnits="userSpaceOnUse">
<stop stop-color="#9D00FF"/>
<stop offset="1" stop-color="#0099F8"/>
</linearGradient>
<clipPath id="clip0_159_103">
<rect width="102.131" height="100" fill="white" transform="translate(0.43457)"/>
</clipPath>
</defs>
</svg>
